<svg width="224" height="118" viewBox="0 0 224 118" fill="none" xmlns="http://www.w3.org/2000/svg">
<path fill-rule="evenodd" clip-rule="evenodd" d="M10.8041 115.065V117.753H0V103.261H10.5363V105.949H3.21446V109.101H9.67313V111.728H3.21446V115.065H10.8041ZM26.1621 103.261V117.753H23.5132L16.5485 108.978V117.753H13.3638V103.261H16.0425L22.9774 112.067V103.261H26.1621ZM32.3529 106.011H27.8884V103.261H40.0319V106.011H35.5674V117.753H32.3529V106.011ZM52.5623 115.065V117.753H41.7582V103.292H52.2944V105.98H44.9726V109.101H51.4611V111.728H44.9726V115.065H52.5623ZM64.0213 117.753L61.3425 113.736H58.3662V117.753H55.122V103.292H61.164C64.8844 103.292 67.2357 105.301 67.2357 108.545C67.2357 110.708 66.1642 112.284 64.3487 113.118L67.4738 117.753H64.0213ZM61.0151 106.011H58.3662V111.048H61.0151C62.9795 111.048 63.9617 110.121 63.9617 108.545C63.9617 106.938 62.9795 106.011 61.0151 106.011ZM72.4741 106.011H68.0096V103.292H80.1828V106.011H75.7183V117.753H72.4741V106.011ZM90.3917 114.663H83.9033L82.683 117.753H79.3792L85.5998 103.292H88.7845L95.0051 117.753H91.612L90.3917 114.663ZM89.3798 112.129L87.1773 106.598L84.9748 112.129H89.3798ZM96.4635 103.292H99.6779V117.784H96.4635V103.292ZM115.78 103.292V117.753H113.131L106.196 108.978V117.753H102.982V103.292H105.66L112.595 112.067V103.292H115.78ZM137.418 117.753L137.388 109.07L133.281 116.239H131.852L127.745 109.256V117.753H124.739V103.292H127.388L132.626 112.284L137.745 103.292H140.394L140.454 117.753H137.418ZM154.532 115.065V117.753H143.758V103.292H154.294V105.98H146.942V109.101H153.431V111.728H146.942V115.065H154.532ZM175.426 117.753V109.07L171.319 116.239H169.86L165.783 109.256V117.753H162.747V103.292H165.425L170.634 112.284L175.783 103.292H178.432L178.462 117.753H175.426ZM180.902 110.522C180.902 106.228 184.117 103.045 188.522 103.045C192.897 103.045 196.141 106.197 196.141 110.522C196.141 114.848 192.897 118 188.522 118C184.117 118 180.902 114.817 180.902 110.522ZM192.867 110.522C192.867 107.772 191.022 105.888 188.522 105.888C186.022 105.888 184.147 107.772 184.147 110.522C184.147 113.272 186.022 115.157 188.522 115.157C191.022 115.157 192.867 113.272 192.867 110.522ZM207.452 117.753L204.773 113.736H201.796V117.753H198.582V103.292H204.624C208.344 103.292 210.666 105.301 210.666 108.545C210.666 110.708 209.624 112.315 207.809 113.118L210.934 117.753H207.452ZM204.416 106.011H201.796V111.048H204.416C206.38 111.048 207.392 110.121 207.392 108.545C207.392 106.938 206.38 106.011 204.416 106.011ZM224 115.065V117.753H213.196V103.292H223.732V105.98H216.41V109.101H222.899V111.728H216.41V115.065H224Z" fill="#0C1C60"/>
<path d="M58.8424 0C64.9142 0 70.5692 1.97753 75.1826 5.34551C79.8257 8.71348 83.4568 13.441 85.5105 19.0337C85.5105 19.0337 85.5402 19.0646 85.5402 19.0955V19.1264C85.7188 19.5899 86.5522 21.7837 87.8618 24.8736C91.5227 33.5562 98.8148 49.4382 105.66 55.4944C115.125 63.8371 127.12 64.5478 127.12 64.5478C127.12 64.5478 118.25 78.0197 92.1775 78.823C63.6046 79.75 45.3298 60.7163 36.0733 47.5843C32.4422 42.6095 30.2695 36.3989 30.2695 29.6629C30.2695 13.2865 43.0678 0 58.8424 0Z" fill="url(#paint0_linear_32_34)"/>
<path d="M184.801 31.2696C188.433 36.2444 190.605 42.455 190.605 49.191C190.605 65.5674 177.807 78.8539 162.032 78.8539C155.961 78.8539 150.306 76.8764 145.692 73.5393C141.049 70.1404 137.418 65.4129 135.364 59.8511C135.364 59.8511 135.335 59.7893 135.335 59.7584C135.335 59.7584 135.335 59.7584 135.335 59.7275C135.156 59.3258 134.471 57.4719 133.37 54.8455C129.858 46.4101 122.298 29.632 115.214 23.3904C105.75 15.0477 93.755 14.3062 93.755 14.3062C93.755 14.3062 102.624 0.865153 128.697 0.0308829C157.27 -0.865184 175.515 18.1685 184.801 31.2696Z" fill="url(#paint1_linear_32_34)"/>
<path d="M93.755 14.3062C93.755 14.3062 105.75 15.0478 115.214 23.3905C122.298 29.632 129.858 46.4101 133.37 54.8455C133.37 54.8455 131.733 59.4803 127.12 64.5478C127.12 64.5478 115.125 63.8371 105.66 55.4944C98.8148 49.4382 91.5227 33.5562 87.8618 24.8736C87.8618 24.8736 88.6059 19.5899 93.755 14.3062Z" fill="url(#paint2_linear_32_34)"/>
<defs>
<linearGradient id="paint0_linear_32_34" x1="30.2617" y1="78.8644" x2="30.2617" y2="-0.00432487" gradientUnits="userSpaceOnUse">
<stop offset="0.036" stop-color="#F2C805"/>
<stop offset="0.285" stop-color="#F09300"/>
<stop offset="1" stop-color="#F29E05"/>
</linearGradient>
<linearGradient id="paint1_linear_32_34" x1="93.7669" y1="78.8669" x2="93.7669" y2="-0.00187144" gradientUnits="userSpaceOnUse">
<stop stop-color="#87A3C7"/>
<stop offset="0.715" stop-color="#2F609E"/>
<stop offset="0.98" stop-color="#043F8A"/>
</linearGradient>
<linearGradient id="paint2_linear_32_34" x1="87.8716" y1="64.5496" x2="87.8716" y2="14.3127" gradientUnits="userSpaceOnUse">
<stop stop-color="#F2A429"/>
<stop offset="0.64" stop-color="#059AD8"/>
<stop offset="0.98" stop-color="#043F8A"/>
</linearGradient>
</defs>
</svg>