
<svg width="32" height="32" viewBox="0 0 32 32" fill="none" xmlns="http://www.w3.org/2000/svg">
<path d="M27.625 16C27.625 22.4219 22.375 27.625 16 27.625C9.57812 27.625 4.375 22.4219 4.375 16C4.375 9.625 9.57812 4.375 16 4.375C22.375 4.375 27.625 9.625 27.625 16ZM14.6406 22.1875L23.2656 13.5625C23.5469 13.2812 23.5469 12.7656 23.2656 12.4844L22.1875 11.4531C21.9062 11.125 21.4375 11.125 21.1562 11.4531L14.125 18.4844L10.7969 15.2031C10.5156 14.875 10.0469 14.875 9.76562 15.2031L8.6875 16.2344C8.40625 16.5156 8.40625 17.0312 8.6875 17.3125L13.5625 22.1875C13.8438 22.4688 14.3594 22.4688 14.6406 22.1875Z" fill="#346DF1"/>
</svg>
